<?xml version="1.0" encoding="UTF-8"?>
<svg xmlns="http://www.w3.org/2000/svg" viewBox="0 0 1500 1500">
  <defs>
    <style>
      .cls-1 {
        fill: #fff;
      }

      .cls-2 {
        fill: #202d62;
      }
    </style>
  </defs>
  <g id="Layer_1" data-name="Layer 1">
    <rect class="cls-1" width="1500" height="1500"/>
  </g>
  <g id="Layer_2" data-name="Layer 2">
    <g>
      <path class="cls-2" d="M1084.17,1068.34h-44.97c-46.14-73.2-124.58-120.56-210.21-127.74l79.19-204.97c29.42-13.27,56.88-6.88,75.15,1.17,26.47,11.67,49.99,34.17,64.52,61.75,2.77,5.25,8.19,8.45,14,8.45,.79,0,1.59-.06,2.4-.18,6.67-1.02,11.96-6.15,13.18-12.78,8.95-48.65-8.12-97.28-42.84-129.68,14.66,.8,29.14,4.54,42.62,11.16,6.48,3.18,14.27,1.59,18.97-3.87,4.7-5.45,5.13-13.4,1.04-19.33-28.46-41.23-73.43-63.62-118.83-60.56-.34-29.13-12.35-53.12-12.98-54.36-1.94-3.81-5.34-6.67-9.42-7.93-4.08-1.26-8.5-.82-12.26,1.22-1.15,.63-21.87,12.1-38.27,33.2l-4.58-6.87c-4.85-7.28-14.68-9.23-21.95-4.39-7.27,4.85-9.24,14.68-4.39,21.95l18.55,27.82c3.26,4.88,8.92,7.57,14.8,6.96,5.84-.6,10.87-4.39,13.06-9.83,5.1-12.69,14.45-22.87,22.6-29.92,2.73,10.43,4.69,24.14,1.73,37.46-1.19,5.35,.48,10.94,4.4,14.76,3.93,3.83,9.56,5.35,14.87,4.03,21.76-5.42,43.78-2.83,63.5,6.68-13.87,.06-27.8,2.17-41.37,6.35-6.25,1.93-10.67,7.5-11.13,14.03-.45,6.53,3.15,12.66,9.07,15.43,30.82,14.45,52.41,41.84,60.25,73.39-14.36-14.4-31.01-26.08-48.77-33.9-31.47-13.87-64.38-15.12-94.19-3.86-24.4-34.94-65.97-54.35-114.3-52.55-8.74,.33-15.55,7.68-15.22,16.41,.33,8.73,7.59,15.53,16.41,15.22,39.29-1.49,71.45,13.9,89.39,42.4l-68.87,178.26c-47.8-169.78-112.19-234.48-134.32-252.56,4.86-75.27,80.39-119.96,153.51-119.96,6.75,0,12.75-4.28,14.96-10.65,2.21-6.37,.13-13.45-5.17-17.62-30.69-24.16-67.51-36.92-106.49-36.92-22.85,0-45.54,4.62-66.49,13.32,9.96-19.93,24.59-37.31,42.99-50.7,5.82-4.24,8.05-11.88,5.42-18.58-2.63-6.7-9.47-10.78-16.62-9.93-61.8,7.4-112.13,44.53-133.68,96.85-32.38-17.92-67.3-18.63-69.05-18.66-4.31-.07-8.39,1.61-11.41,4.63-3.02,3.02-4.7,7.14-4.64,11.41,.02,1.75,.74,36.67,18.66,69.05-52.32,21.55-89.45,71.88-96.85,133.68-.86,7.15,3.22,13.98,9.93,16.62,6.7,2.63,14.34,.41,18.58-5.42,13.37-18.36,30.72-32.98,50.6-42.94-23.58,56.61-15.59,123,23.71,172.93,3.06,3.89,7.68,6.04,12.44,6.04,1.73,0,3.48-.29,5.18-.87,6.38-2.21,10.65-8.21,10.65-14.96,0-74.02,45.83-150.48,122.79-153.62,16.05,12.6,84.47,75.75,132.33,265.51-86.7,6.38-166.32,53.99-212.95,127.97h-157.54c-8.74,0-15.83,7.09-15.83,15.83s7.09,15.83,15.83,15.83h668.34c8.74,0,15.83-7.09,15.83-15.83s-7.09-15.83-15.83-15.83Zm-541.87-366.92c-17.26,21.74-29.84,48.36-36.73,76.79-15.26-43.56-8.49-93.06,20.49-131.38,3.95-5.22,4.28-12.32,.83-17.88-2.92-4.71-8.04-7.49-13.45-7.49-.97,0-1.95,.09-2.93,.27-22.18,4.17-43.01,12.52-61.54,24.46,16.64-29.59,43.48-50.78,76.68-58.95,5.32-1.31,9.59-5.28,11.28-10.49,1.69-5.21,.56-10.93-2.99-15.11-13.12-15.47-19.08-35.24-21.77-49.42,14.21,2.72,34.05,8.68,49.45,21.74,4.18,3.55,9.9,4.67,15.11,2.99,5.21-1.69,9.19-5.96,10.49-11.28,8.17-33.2,29.36-60.04,58.95-76.68-11.93,18.53-20.28,39.35-24.46,61.54-1.21,6.43,1.66,12.94,7.22,16.38,5.55,3.44,12.67,3.11,17.88-.83,24.22-18.32,54.39-28.41,84.95-28.41,16.11,0,31.78,2.68,46.56,7.88-28.48,6.88-55.14,19.48-76.92,36.76-33.43,26.53-53.51,62.15-57.59,101.53-39.38,4.08-75,24.17-101.53,57.59Zm69.51,366.92c45.7-60.48,117.88-97.07,194.46-97.07s148.77,36.59,194.47,97.07h-388.93Z"/>
      <path class="cls-2" d="M542.46,1015.58c8.74,0,15.83-7.09,15.83-15.83s-7.09-15.83-15.83-15.83h-98.49c-8.74,0-15.83,7.09-15.83,15.83s7.09,15.83,15.83,15.83h98.49Z"/>
    </g>
  </g>
</svg>