<?xml version="1.0" encoding="UTF-8"?>
<svg id="Layer_1" data-name="Layer 1" xmlns="http://www.w3.org/2000/svg" viewBox="0 0 509.9 437.41">
  <defs>
    <style>
      .cls-1 {
        fill: #202d62;
      }
    </style>
  </defs>
  <path class="cls-1" d="M254.74,63.66c-14.38,6.02-28,14.2-41.98,21.1-22.52,11.13-45.3,21.48-67.5,33.28-28.76,15.29-99.64,65.89-132.81,39.98-13.54-10.58-16.81-30.38-5.99-44.07,9.15-11.58,38.19-21.07,51.64-27.19L196.86,22.16C213.59,14.32,233.08,2.26,251.61,.2c18.15-2.47,54.16,18.63,70.93,26.4l103.71,48.25c13.57,6.35,27.33,12.52,41.04,18.57,13.88,6.13,34.28,12.13,40.42,27.64,6.43,16.22-1.81,35.16-18.03,41.41-34.83,13.41-93.27-27.08-122.21-42.84-21.4-11.66-43.38-21.88-65.22-32.65-14.96-7.38-29.63-15.51-44.91-22.22l-2.61-1.1Zm-.89-49.08c-14.69,1.48-32.9,12.74-46.3,18.89L55.91,103.73c-8.6,3.93-32.34,12.52-38.27,19.46-5.43,6.36-3.5,17.64,2.8,22.67,21.78,17.38,76.43-17.3,94.98-28.13,12.32-7.19,128.64-68.29,140.47-69.25l.54,.14c6.01,1.58,11.83,4.97,17.38,7.73l23.28,11.6c25.73,12.72,51.72,24.73,77.03,38.32,22.77,12.23,87.18,55.8,112.21,41.77,8.03-4.5,11.55-15.24,6.73-23.39-4.21-7.12-18.32-11.68-25.55-14.98L295.78,30.27c-10.51-4.84-30.2-16.96-41.92-15.7h0Zm0,0"/>
  <path class="cls-1" d="M257.39,148.68c-43.52,1.15-48.3-61.59-4.06-66.16,6.83-.87,15.42,2.48,20.86,6.41,24.24,17.53,14.61,55.44-16.8,59.75h0Zm-5.62-51.2c-24.1,5.12-16.91,39.9,6.79,36.46,22.75-6.18,16.69-38.47-6.79-36.46h0Zm0,0"/>
  <path class="cls-1" d="M72.06,217.78c-5.95-7.87-12.91-8.7-14.22-21.48-1.45-14.1,9.38-23.58,22.63-24.93,5.37-.61,11.24-.17,16.66-.16H407.88c17.05,0,47.65-2.46,44.78,24.68-1.06,10.01-7.34,15.46-14.67,21.44-.98,17.01-.99,36.94-.39,54.08l4,112.84c17.11,4.76,31.08,20.62,31.05,38.8-.03,15.61-8.31,14.17-19.97,14.12l-22.12-.09c-27.62,.3-55.25,.05-82.87,.06l-287.49-.03c-9.45,.05-20.28,2.8-22.52-9.85-3.15-17.81,12.97-39.23,30.5-42.21,.11-15.63,1.31-31.34,1.9-46.96l1.81-64.41c.45-13.23,2.65-43.43,.18-55.92h0Zm132.53-32.33c-24.6,.54-49.33-.79-73.89,.87,5.08,23.57-8.97,21.79-11.97,32.82-2.08,7.63-.65,30.47-.32,39.44l4.29,125.62,25.31,.02,50.04-.02c10.15,0,20.33,.16,30.47-.14l4.01-110.83c.36-13.01,1.76-44.14,.16-56-10.12-7.84-17.94-18.72-12.16-31.61-5.3-.04-10.63,.04-15.93-.17h0Zm143,0c-18.83,.4-37.68-.18-56.51,.2,2.98,16.13-1.96,21.91-13.14,31.86-.63,13.9-.3,27.59,.05,41.49l2.33,75.68c.5,16.44,.86,32.95,1.63,49.37,14.04,.38,28.09,.04,42.13,.19l62.94-.03c1.07-11.75,.84-23.56,1.28-35.35l3.72-104.44c.21-8.4,3.15-22.09-2.58-29.04-8.27-10.04-13.91-15.81-8.95-28.99-10.2-1.93-22.39-.54-32.89-.93h0Zm-265.95,.23c-23.01,4.61,3.24,20.58,5.11,29.99,1.03,5.2,.55,10.76,.48,16.03-.72,50.82-3.25,101.55-4.16,152.35,7.07,.14,18.21,.8,24.9,0l.36-.49c-.39-7.05-.15-14.1-.45-21.15l-4.29-111.1c-.54-12.99-2.33-36.54,6.22-46.04,2.55-2.83,5.94-5.39,7.79-8.74-3.04-15.42-22.08-11.83-35.94-10.86h0Zm160.23,.05c-6.44,.64-8.07,4.49-9.05,10.44,4.26,6.69,11.91,10.76,14.2,18.74,2.2,7.7,.32,36.48,.04,46.1l-2.98,96.6c-.3,8.79-1.04,17.56-1.21,26.37,3.5,.16,22.44,.94,24.45-.21l.11-.46c-.06-7.25-.53-14.48-.73-21.73l-2.8-76.84c-.26-7.49,.03-15-.11-22.49-.26-13.81-5.56-45.71,5.09-56.39,3.29-3.3,6.95-5.64,8.83-10.09-3.8-14.78-22.96-10.61-35.85-10.04h0Zm161.19,.01c-1.87,.16-3.76,.25-5.6,.63-2.49,3.04-3.66,6.14-4.33,9.97,3.42,6.98,10.76,11.1,12.9,18.87,2.32,8.42,1.05,23.21,.74,32.19l-2.91,78.67c-.71,19.33-1.21,38.74-2.39,58.04,8.52,.12,17.05,.12,25.57,.05-.4-22.91-1.42-45.81-2.22-68.71l-1.84-42.32c-.44-11.72-.08-23.6-.07-35.34,0-10.12-2.19-23.68,5.5-31.72,3.11-3.26,9.89-6.7,9.73-11.79-.37-11.72-27.64-9.06-35.07-8.53h0Zm-201.78,212.68c-29.64,.6-59.37,.11-89.02,.11h-21.24c-17.66,0-37.82-.18-38.65,24.26l175.63,.04c27.34,0,54.75-.38,82.08,.1,49.38-.92,98.83,.51,148.21-.16-3.89-27.85-25.13-24.25-46.03-24.25l-152.06,.02c-19.63,0-39.31,.36-58.93-.12h0Zm0,0"/>
</svg>