<?xml version="1.0" encoding="UTF-8"?>
<svg id="Layer_1" data-name="Layer 1" xmlns="http://www.w3.org/2000/svg" viewBox="0 0 332 267.9">
  <defs>
    <style>
      .cls-1 {
        fill: none;
        stroke: #202d62;
        stroke-linecap: round;
        stroke-linejoin: round;
        stroke-width: 12px;
      }
    </style>
  </defs>
  <path class="cls-1" d="M277.17,208.23c-23.2,32.49-61.22,53.67-104.19,53.67-39.36,0-74.56-17.77-98.03-45.72"/>
  <path class="cls-1" d="M95,32.5C116.59,15.88,143.63,6,172.98,6c43.72,0,82.31,21.92,105.39,55.38"/>
  <circle class="cls-1" cx="172.98" cy="133.95" r="84.81"/>
  <path class="cls-1" d="M40.48,100.51h0c-7.98,0-14.51,6.53-14.51,14.51v123.31c0,7.98,6.53,14.51,14.51,14.51h0c7.98,0,14.51-6.53,14.51-14.51V115.03c0-7.98-6.53-14.51-14.51-14.51Z"/>
  <path class="cls-1" d="M74.95,15.04v55.62c0,16.48-15.44,29.85-34.48,29.85h0c-19.04,0-34.48-13.36-34.48-29.85V15.04"/>
  <line class="cls-1" x1="29.08" y1="59.42" x2="29.08" y2="15.04"/>
  <line class="cls-1" x1="51.87" y1="59.42" x2="51.87" y2="15.04"/>
  <path class="cls-1" d="M311.49,146.62h0c8.01,0,14.51,6.5,14.51,14.51v77.21c0,8.01-6.5,14.51-14.51,14.51h0c-8.01,0-14.51-6.5-14.51-14.51v-77.21c0-8.01,6.5-14.51,14.51-14.51Z"/>
  <path class="cls-1" d="M326,138.02V23.43c0-4.63-3.76-8.39-8.39-8.39h0c-3.67,0-6.91,2.36-8,5.87-5.84,18.67-23.3,77.76-23.14,116.63,.02,5.05,4.21,9.07,9.26,9.07h21.68c4.75,0,8.6-3.85,8.6-8.6Z"/>
</svg>