<?xml version="1.0" encoding="UTF-8"?>
<svg id="Layer_1" data-name="Layer 1" xmlns="http://www.w3.org/2000/svg" viewBox="0 0 470.68 558.93">
  <defs>
    <style>
      .cls-1 {
        fill: #202d62;
      }
    </style>
  </defs>
  <path class="cls-1" d="M165.07,396.39c-.19-.43-.41-.85-.69-1.24-1.64-2.91-3.42-5.9-5.32-8.93,1.32-3.04,4.02-8.32,8.66-13.66,2.4-2.76,2.11-6.94-.65-9.33-2.76-2.4-6.94-2.11-9.33,.65-2.92,3.35-5.22,6.69-7.01,9.69-2.49-3.62-5.08-7.24-7.72-10.84-.03-.05-.05-.1-.08-.14-.09-.12-.19-.24-.28-.36-1.89-2.57-3.79-5.12-5.7-7.63,1.41-3.11,4.05-8.05,8.39-13.04,2.4-2.76,2.11-6.94-.65-9.33-2.76-2.4-6.94-2.11-9.33,.65-3.1,3.56-5.49,7.1-7.33,10.24-4.16-5.25-8.21-10.21-11.95-14.7,.94-2.6,2.83-7.2,6.25-13.57,1.73-3.22,.52-7.23-2.7-8.96-3.22-1.73-7.23-.52-8.96,2.7-1.73,3.22-3.1,6.03-4.21,8.46-5.81-6.76-9.77-11.15-10.42-11.87-2.45-2.71-6.63-2.92-9.35-.47-2.71,2.45-2.92,6.63-.47,9.35,2.98,3.29,6.72,7.54,10.93,12.45-6.44-1.09-11.76-1.64-12.88-1.75-3.63-.35-6.87,2.3-7.23,5.93-.36,3.64,2.3,6.87,5.93,7.23,5.45,.54,20.56,2.57,28.48,5.73,2.81,3.46,5.68,7.05,8.55,10.71-7.03-.02-13.59,1.07-16.79,1.71-3.58,.71-5.92,4.19-5.21,7.77,.71,3.58,4.18,5.91,7.77,5.21,10.13-2,23.58-1.93,26.24,1.11,3.58,4.87,7.02,9.73,10.24,14.49-5.18-.97-8.93-.93-9.26-.93-3.64,.06-6.54,3.06-6.49,6.71,.05,3.65,3.06,6.61,6.7,6.52,.11,0,11.91-.03,20.68,6.47,4.02,7.33,6.87,13.87,7.88,19.02,.62,3.16,3.39,5.34,6.49,5.34,.42,0,.85-.04,1.28-.13,3.59-.7,5.92-4.18,5.22-7.77-1.3-6.6-4.81-14.68-9.68-23.48Z"/>
  <circle class="cls-1" cx="427.61" cy="376.21" r="5.8"/>
  <circle class="cls-1" cx="394.83" cy="408.99" r="5.8"/>
  <path class="cls-1" d="M460.79,240.05c-2.26,2.26-2.26,5.93,0,8.2,2.26,2.26,5.93,2.26,8.2,0,2.26-2.26,2.26-5.93,0-8.2s-5.93-2.26-8.2,0Z"/>
  <circle class="cls-1" cx="461.37" cy="319.81" r="5.8"/>
  <path class="cls-1" d="M328.73,277.32c-2.26,2.26-2.26,5.93,0,8.2,2.26,2.26,5.93,2.26,8.2,0,2.26-2.26,2.26-5.93,0-8.2s-5.93-2.26-8.2,0Z"/>
  <path class="cls-1" d="M295.95,310.11c-2.26,2.26-2.26,5.93,0,8.2s5.93,2.26,8.2,0c2.26-2.26,2.26-5.93,0-8.2-2.26-2.26-5.93-2.26-8.2,0Z"/>
  <circle class="cls-1" cx="389.23" cy="247.66" r="5.8"/>
  <path class="cls-1" d="M442.85,319.52h-.04c-3.94,.07-7.75-.93-11.78-1.94-2.05-.51-4.22-1.05-6.51-1.49,4.77-2.1,9.24-5.09,12.84-8.69h0c8.64-8.64,16.48-32.08,20.39-45.29,.91-3.06,.07-6.37-2.19-8.63-2.26-2.26-5.56-3.1-8.63-2.19-13.21,3.91-36.65,11.75-45.29,20.39-3.59,3.59-6.58,8.06-8.67,12.81-.44-2.3-.97-4.48-1.48-6.53-1-4.04-1.95-7.85-1.92-11.79,.02-2.16-1.02-4.18-2.77-5.44-1.76-1.25-4.01-1.57-6.04-.85-7.32,2.58-31.37,13.28-33.66,42.68-.07,.91-.07,1.93-.02,3-1.26-2.36-2.35-4.71-3.04-7.24-.57-2.08-2.11-3.75-4.14-4.48-2.03-.73-4.28-.43-6.05,.81-5.47,3.85-21.24,16.86-21.82,38.88-.1-.36-.2-.72-.28-1.08-.48-2.1-1.96-3.83-3.96-4.65-2-.81-4.27-.6-6.08,.57-1.49,.96-3.73,2.54-6.25,4.74-9.48-21.55-30.42-36.95-55.06-38.45-.91-5.8-1.74-10.2-1.81-10.62-.68-3.59-4.14-5.96-7.72-5.28-3.59,.67-5.95,4.13-5.28,7.72,.37,1.97,.92,5.1,1.51,8.73-23.71,3.47-43.27,19.9-51.22,41.85,.23-5.08,.06-11.57-1.24-18.7-1.33-7.27-5.78-10.07-8.31-11.1-5.53-2.23-12.04-.47-17.26,1.92-1.06-5.77-2.26-13.49-2.67-20.38-.4-6.75-4.22-9.72-6.46-10.88-5.84-3.03-13.83-.69-19.74,1.97-3.31-7.24-9.05-16.54-17.05-17.87-9.41-1.56-21.46,9.26-28.01,16.09-8.24-.68-28.19-.77-37.67,12.8-6.51,9.32-5.44,14.58-1.6,20.05,1.35,1.92,2.03,2.89,1.03,7.01-2.69,11.09,3.83,17.83,8.14,22.29,4.43,4.59,4.24,4.96,3.33,6.73-1.98,3.84-1.49,7.13-.72,9.22,2.33,6.35,9.75,9.42,17.6,12.66,2.52,1.04,6.43,2.66,9.16,4.21-19.39,9-31.27,20.26-31.27,33.67,0,50.95,25.17,96.13,63.73,123.77,24.94,17.87,55.48,28.41,88.44,28.41h79.4c32.96,0,63.5-10.54,88.44-28.41,38.56-27.63,63.73-72.81,63.73-123.77,0-9.78-6.33-18.42-17.28-25.87,2.13-2.27,3.69-4.3,4.66-5.68,1.24-1.76,1.55-4.02,.82-6.05-.73-2.03-2.4-3.58-4.47-4.15-2.52-.69-4.87-1.79-7.22-3.05,.43,.02,.87,.04,1.28,.04,.6,0,1.17-.02,1.71-.06,29.41-2.24,40.15-26.27,42.74-33.58,.72-2.03,.4-4.29-.84-6.04-1.24-1.75-3.25-2.78-5.39-2.78Zm-31.86-38.49c4-4,15.75-9.37,31.53-14.52-5.15,15.77-10.53,27.53-14.52,31.53-8.04,8.04-20.39,9.79-23.59,6.59-3.2-3.2-1.45-15.56,6.59-23.6Zm-50.72,22.55c1.16-14.87,9.78-23.17,17.15-27.59,.37,1.76,.8,3.47,1.22,5.16,1.13,4.53,2.19,8.81,2.02,13.62-.63,17.19-7.46,23.01-15.33,27.78-2.42-4.17-5.46-13.67-5.05-18.97Zm-2.7,30.29c.62,.6,1.25,1.14,1.91,1.55,1.6,1.01,3.36,1.52,5.09,1.52,1.53,0,3.05-.4,4.43-1.2,7.58-4.4,18.24-10.6,22.77-26.39,.84,1.69,1.92,3.25,3.29,4.62s2.9,2.43,4.57,3.26c-15.79,4.5-22.01,15.15-26.42,22.72-1.71,2.93-1.6,6.49,.3,9.51,.41,.66,.95,1.29,1.55,1.91-8.08-.83-14.54,.27-19.83,2.32,2.06-5.29,3.18-11.75,2.36-19.83Zm23.06,31.89c4.67,1.14,8.5,3.33,12.55,5.65,1.51,.86,3.04,1.74,4.63,2.58-6.27,5.88-16.61,11.91-31.22,8.98-5.21-1.05-13.52-6.56-16.87-10.03,6.73-6.27,14.2-11.25,30.91-7.17Zm-45.64-54.7c.83,1.59,1.71,3.12,2.57,4.64,2.31,4.06,4.5,7.89,5.63,12.56,4.05,16.72-.95,24.17-7.23,30.9-3.46-3.36-8.96-11.68-10-16.89-2.91-14.63,3.14-24.95,9.03-31.21Zm-11.29,56.03c.64,.1,1.28,.2,1.91,.31,2.69,2.82,5.52,4.95,8.21,5.74,.53,.16,1.06,.26,1.59,.33,.07,.53,.16,1.06,.32,1.59,1,3.42,4.15,7.07,8.15,10.36-9.78-1.2-17.28,.2-23.21,2.78,2.4-5.49,3.78-12.34,3.04-21.1Zm22.8,32.13c4.71,.95,8.63,2.98,12.77,5.13,1.54,.8,3.11,1.61,4.73,2.38-6.02,6.13-16.1,12.59-30.83,10.25-5.25-.83-13.78-6-17.27-9.33,6.47-6.54,13.73-11.82,30.59-8.43Zm-44.31-54.41c.77,1.63,1.58,3.19,2.38,4.74,2.15,4.15,4.17,8.06,5.11,12.78,3.36,16.87-1.94,24.11-8.49,30.58-3.32-3.49-8.48-12.03-9.3-17.28-2.31-14.73,4.16-24.8,10.3-30.81Zm-73.27-36.49c.33,2.82,.58,5.5,.71,7.82-12.57,1.39-22.4,12.07-24.02,15.05-1.75,3.21-.56,7.23,2.65,8.97,1,.55,2.09,.81,3.16,.81,2.25,0,4.44-1.15,5.67-3.2,1.28-1.74,6.82-7.09,12.86-8.3,1.3,2.59,3.08,7.61,.65,12.53-1.62,3.27-.28,7.24,2.99,8.87,.94,.47,1.94,.69,2.93,.69,2.44,0,4.78-1.35,5.93-3.68,3.03-6.11,3-12.03,1.96-16.84,4.91,2.17,9.84,5.37,10.63,8.57,.75,3.01,3.45,5.03,6.42,5.03,.53,0,1.06-.06,1.59-.19,3.55-.88,5.71-4.46,4.84-8.01-3.19-12.92-20.92-18.83-25-20.03-.11-2.52-.35-5.36-.67-8.29,20.65,2.33,37.61,16.98,43.33,36.41-5.2,8.09-8.94,19.08-6.74,33.16,.31,1.97,1.01,4.31,1.99,6.79-8.85,15.34-25.41,25.69-44.36,25.69-8.5,0-16.51-2.09-23.58-5.77,1.5-6.33,2.67-13.2,2.21-17.99-.36-3.85-2.32-6.94-5.5-8.7-3.64-2-8.33-1.78-12.71-.76,.61-7.17,.66-16.51-1.76-24.43-1.32-4.31-3.76-7.76-7.1-10.12,6.12-17.83,21.8-31.25,40.91-34.07Zm45.75,237.36h-79.4c-68.24,0-125.13-49.44-136.76-114.39,31.35,22.87,105.59,34.99,176.46,34.99s145.11-12.12,176.46-34.99c-11.63,64.94-68.53,114.39-136.76,114.39Zm138.94-138.94c0,21.86-76.4,46.31-178.64,46.31s-178.64-24.45-178.64-46.31c0-6.5,6.76-13.23,18.95-19.48,.08,.24,.17,.47,.26,.69,3.13,7.43,12.82,9.66,23.07,12.02,3.44,.79,8.8,2.03,11.41,3.22-4.9,13.82,6.79,25.64,13.96,30.11,1.09,.68,2.3,1,3.49,1,2.21,0,4.37-1.11,5.62-3.12,1.93-3.1,.98-7.18-2.12-9.11-.12-.07-11.65-7.53-8.2-15.16,1.43-3.16,1.43-6.47,.01-9.34-3.13-6.31-11.5-8.25-21.2-10.48-3.89-.9-10.77-2.48-13.31-4.03,2.95-4.92,2.56-9.06,1.7-11.67-2.5-7.62-11.25-11.24-19.72-14.74-2.99-1.24-7.71-3.18-9.66-4.63,4.49-10-2.09-16.82-6.08-20.94-4.18-4.33-5.68-6.31-4.79-9.98,2.22-9.18-.41-13.96-3.06-17.73-.2-.28-.45-.64-.62-.9,.15-.49,.64-1.69,2.23-3.96,5.89-8.43,22.45-7.83,28.33-6.9,2.22,.36,4.48-.43,5.99-2.11,6.55-7.28,15.39-14.2,18.37-14.4,2.35,.9,7.01,8.83,9.49,16.2,.64,1.92,2.13,3.44,4.03,4.12,1.9,.69,4.01,.47,5.73-.6,4.45-2.76,10.34-5.06,12.94-5.15,.84,14.14,4.6,30.64,4.76,31.34,.49,2.15,2.04,3.92,4.1,4.7,2.06,.79,4.39,.48,6.19-.8,5-3.56,11.18-5.89,12.99-5.41,.09,.16,.25,.53,.38,1.25,2.45,13.4,.08,24.24,.06,24.33-.54,2.34,.23,4.79,2.01,6.4,1.78,1.61,4.29,2.13,6.57,1.35,1.14-.39,6.43-1.61,9.58,0,.86,.44,1.94,1.24,2.64,3.54,3.56,11.67-.1,29.07-.14,29.24-.54,2.5,.4,5.08,2.43,6.64,2.02,1.56,4.76,1.82,7.04,.66,3.35-1.7,7.68-3.14,10.17-3.47-.2,6.7-3.76,19.48-6.2,26.63-1.18,3.46,.67,7.22,4.13,8.4,3.46,1.18,7.22-.67,8.4-4.13,.15-.43,.5-1.49,.98-2.99,8.27,3.86,17.48,6.04,27.19,6.04,21.06,0,39.79-10.16,51.55-25.83,2.14,2.93,4.48,5.48,6.85,7.23-3.98,3.97-11.28,11.28-24.78,24.81-2.58,2.59-2.57,6.78,.01,9.36,1.29,1.29,2.98,1.93,4.67,1.93s3.39-.65,4.69-1.94c7.91-7.93,18.76-18.81,24.74-24.77,5.62,7.46,19.13,14.64,26.93,15.88,2.86,.45,5.59,.66,8.2,.66,23.96,0,37.35-17.57,41.15-23.45,1.17-1.81,1.39-4.08,.58-6.08-.81-2-2.54-3.48-4.64-3.96-.36-.08-.71-.18-1.07-.28,9.62-.24,17.52-3.38,23.69-7.3,9.43,5.56,14.6,11.41,14.6,17.09Zm-8.27-58.02c-5.3,.41-14.79-2.66-18.96-5.09,4.79-7.86,10.62-14.68,27.81-15.28,4.8-.17,9.08,.9,13.61,2.04,1.69,.42,3.4,.85,5.16,1.22-4.44,7.36-12.75,15.97-27.62,17.1Z"/>
  <path class="cls-1" d="M139.54,195.1c12.72,11.79,28.1,19.29,43.33,21.12,2.42,.29,4.79,.43,7.1,.43,13.02,0,24.28-4.54,32.23-13.11,9.36-10.09,12.8-24.36,9.68-40.18-2.97-15.04-11.61-29.82-24.32-41.61-19.65-18.22-45.3-25.66-65.28-19.31-28.18-24.56-64.7-56.68-84.93-75.63C41.85,12.28,25.08,6.29,12.51,10.79,5.68,13.23,1.07,18.77,.17,25.61c-1.39,10.6,5.9,22.28,20.01,32.03,25.12,17.36,64.69,51.14,94.51,77.37-3.06,19.83,6.39,42.97,24.86,60.1ZM27.7,46.75c-11.48-7.93-14.94-15.42-14.41-19.42,.25-1.93,1.49-3.3,3.67-4.08,1.19-.43,2.64-.67,4.31-.67,6.38,0,15.99,3.54,27.03,13.89,21.09,19.76,59.63,53.62,88.25,78.54,1.92,1.67,4.62,2.1,6.96,1.09,2.95-1.27,6.17-2.06,9.56-2.41-1.99,1.28-3.82,2.79-5.47,4.57-6.91,7.45-9.46,17.92-7.18,29.48,2.13,10.78,8.3,21.36,17.37,29.78,2.68,2.48,6.86,2.33,9.35-.35,2.48-2.68,2.33-6.87-.35-9.35-7.04-6.53-11.8-14.57-13.39-22.63-1.44-7.29-.06-13.65,3.9-17.92,8.58-9.25,27.42-6.32,41.15,6.41,13.73,12.73,18.07,31.3,9.49,40.55-2.48,2.68-2.33,6.87,.35,9.35,1.27,1.18,2.89,1.76,4.5,1.76,1.78,0,3.55-.71,4.85-2.12,.49-.52,.94-1.07,1.38-1.62-1.05,5.01-3.24,9.42-6.53,12.97-6.4,6.9-16.37,9.93-28.05,8.53-12.47-1.5-25.22-7.78-35.91-17.68-16.01-14.84-24.13-35.44-20.2-51.25,.6-2.4-.19-4.92-2.04-6.56-30.37-26.79-72.13-62.56-98.59-80.84Z"/>
  <path class="cls-1" d="M271.55,230.08l3.09,1.28s0,0,0,0c0,0,0,0,0,0l28.18,11.64c3.46,1.43,7.04,2.1,10.57,2.1,10.92,0,21.3-6.48,25.72-17.18l21.27-51.49c5.99-14.51,4-30.72-5.08-43.26l42.85-103.74c4.23-10.25-.66-22.03-10.91-26.27l-3.96-1.64c-4.97-2.05-10.43-2.05-15.39,.02-4.96,2.06-8.82,5.93-10.87,10.9l-42.29,102.41c-16.39,1.57-30.62,11.98-37,27.44l-21.27,51.49c-2.83,6.86-2.83,14.41,.02,21.27,2.85,6.86,8.2,12.19,15.06,15.03Zm-2.85-31.24l21.27-51.49c4.89-11.84,16.31-19.47,29.11-19.47,.06,0,.11,0,.17,0,2.68,0,5.09-1.61,6.12-4.09l43.9-106.29c.7-1.7,2.02-3.02,3.72-3.73,1.7-.71,3.57-.71,5.27,0l3.96,1.64c3.51,1.45,5.18,5.48,3.73,8.98l-44.33,107.34c-.96,2.32-.52,4.99,1.14,6.88,7.95,9.08,10.03,21.64,5.43,32.78l-21.27,51.49c-2.63,6.37-9.29,9.87-15.82,8.8,3.22-7.37,8.53-20.67,18.3-45.2,1.35-3.39-.3-7.24-3.7-8.59-3.4-1.35-7.24,.3-8.59,3.7-6.91,17.34-14.62,36.39-18.44,45.38l-12.52-5.17c3.2-7.3,8.53-20.64,18.46-45.56,1.35-3.39-.3-7.24-3.7-8.6-3.39-1.35-7.24,.3-8.59,3.7-6.84,17.16-14.46,35.99-18.32,45.1-2.33-1.58-4.15-3.79-5.25-6.45-1.49-3.59-1.5-7.55-.01-11.14Z"/>
</svg>