<?xml version="1.0" encoding="UTF-8"?>
<svg id="line" xmlns="http://www.w3.org/2000/svg" viewBox="0 0 57.52 23.39">
  <defs>
    <style>
      .cls-1 {
        fill: #202d62;
      }
    </style>
  </defs>
  <path class="cls-1" d="M57.52,11.09c-2.03-4.17-6.85-4.89-8.12-4.85-3.18-2.88-9.21-2.76-9.46-2.75-.06,0-1.22,.23-1.22,.23-1.91-1.49-5.3-1.8-6.64-1.86-2.42-2.98-7.95-1.51-8.2-1.44-.51,.14-.82,.65-.71,1.16l.3,1.49c-.03,.45,1.62,1.6,2.16,2.13,.23,.29,1.88,.47,2.22,.58-.01,.02-1.37,2.6-1.37,2.6,0,0-1.07,.51-1.48,.52l-14.2,.1c-1.76-.03-3.2,1.73-2.8,3.45,0,0,.49,2.42,.49,2.42-.4,.12-1.7,.19-1.91,.72,0,0-.97,1.58-.97,1.58-.42,.64,.09,1.54,.85,1.52,.8,.06,1.21-1.17,1.6-1.69,0,0,1.81-.37,1.81-.38,.51-.05,3.27-.81,3.53-.59,0,0,.85,.34,.85,.34,1.5,.73,3.19-.62,4.45-1.3,.34-.19,.71-.27,1.08-.23,2.15,.21,7.55,.32,11.95-3.06l7.46-1.53c1.28-.28,.9-2.21-.4-1.96,0,0-7.21,1.48-7.21,1.48l-2.56-1.96,11.07-2.33c.54,0,3.95,.02,6.47,1.23l-4.27,.88c-1.29,.29-.89,2.2,.4,1.96,0,0,6.41-1.31,6.41-1.31,.28-.01,3.4-.1,5.71,2.38l-36.15,7.36c-1.89,.43-3.37,1.03-4.46,1.94-2.19,1.94-5.81,1.95-8.02,0-1.2-.86-2.56-1.84-5.18-1.84-1.29,.01-1.33,1.98,0,2,4.35,.11,4.39,3.39,9.19,3.31,2.62,0,3.98-.98,5.18-1.84,2.21-1.95,5.83-1.94,8.02,0,2.82,2.44,7.54,2.45,10.36,0,2.22-1.95,5.81-1.95,8.02,0,1.2,.86,2.56,1.84,5.18,1.84,4.8,.08,4.84-3.2,9.2-3.31,1.29-.02,1.33-1.97,0-2-4.8-.08-4.84,3.2-9.2,3.31-1.99,0-2.93-.69-4.04-1.49l8.68-1.77c3.39-.67,5.79-3.73,5.95-7.04h0Zm-27.89-.27c-3.66,2.32-7.9,2.21-9.66,2.03-1.42-.26-3.06,.97-4.25,1.61-.46,.32-1.15-.14-1.59-.29-.99-.48-2.69,.13-3.7,.29,0,0-.49-2.42-.49-2.42-.07-.35,.08-.6,.17-.72,.1-.12,.32-.32,.68-.33l14.21-.1c1.2,.02,2.19-.61,3.16-1.2,0,0,1.46,1.12,1.46,1.12Zm.7-5.38c.25-.55-.12-1.22-.71-1.32,0,0-2.9-.6-2.9-.6l-1.37-1.18-.04-.18c1.69-.28,4.41-.36,5.38,1.21,.18,.29,.5,.47,.84,.48,.74,0,2.44,.13,3.94,.54,0,0-5.15,1.05-5.15,1.05Zm20.84,10.73s-10.82,2.24-10.9,2.28c-.7-.23-1.52-.37-2.53-.37-2.62,0-3.98,.98-5.18,1.84-1.09,.79-2.04,1.47-4.01,1.47-2.67,0-3.45-1.25-5.28-2.31l31.93-6.5c-.59,1.8-2.13,3.2-4.02,3.59Z"/>
</svg>