<?xml version="1.0" encoding="UTF-8"?>
<svg id="Layer_1" data-name="Layer 1" xmlns="http://www.w3.org/2000/svg" viewBox="0 0 304.11 61.41">
  <defs>
    <style>
      .cls-1 {
        fill: #fff;
      }
    </style>
  </defs>
  <path class="cls-1" d="M47.97,60.17H0v-1.69c6.85-.44,7.74-1.6,7.74-8.46V11.21C7.74,4.63,6.68,3.29,0,2.94V1.25H47.17l.36,12.73h-2.23c-1.34-8.01-3.38-9.35-13.71-9.35h-11.66c-2.49,0-3.11,.36-3.11,3.2V27.41h13.44c7.65,0,8.99-1.51,10.06-8.54h2.05v20.83h-2.05c-1.07-7.48-2.4-8.63-10.06-8.63h-13.44v21.63c0,3.74,2.4,4.18,8.99,4.18h3.2c12.73,0,16.55-2.31,20.56-11.75h2.49l-4.09,15.04Z"/>
  <path class="cls-1" d="M110.01,16.38c-1.96-9.79-4.27-11.39-13.71-11.39h-5.25V50.29c0,6.76,1.25,7.83,8.54,8.19v1.69h-25.99v-1.69c7.39-.44,8.37-1.42,8.37-9.26V4.98h-5.34c-9.43,0-11.84,1.6-13.62,11.39h-2.14l.62-15.13h50.02l.62,15.13h-2.14Z"/>
  <path class="cls-1" d="M157.53,60.17v-1.69c6.94-.44,7.83-1.87,7.83-9.34v-17h-26.97v17.98c0,6.5,1.16,8.01,7.74,8.37l.09,1.69h-24.83v-1.69c6.94-.44,7.92-1.51,7.92-9.17V11.39c0-6.94-1.07-7.92-7.92-8.46V1.25h24.92v1.69c-6.5,.53-7.92,1.51-7.92,8.46V28.21h26.97V11.39c0-7.03-1.16-7.92-7.92-8.46V1.25h24.92v1.69c-6.59,.53-7.92,1.6-7.92,8.46V50.29c0,6.32,1.25,7.65,7.92,8.19v1.69h-24.83Z"/>
  <path class="cls-1" d="M222.23,61.41c-17.27,0-29.1-12.46-29.1-30.97S204.88,0,222.23,0s29.1,13.08,29.1,30.71-12.02,30.71-29.1,30.71Zm10.86-54.03c-3.2-2.67-6.76-4.18-10.95-4.18-4.81,0-9.26,1.96-12.73,5.96-3.83,4.36-6.14,13-6.14,21.45,0,10.59,2.58,18.6,8.01,23.59,3.03,2.76,6.94,4,11.04,4,4.45,0,8.37-1.33,11.48-4.27,4.9-4.72,7.39-13.08,7.39-23.76s-3.03-18.51-8.1-22.79Z"/>
  <path class="cls-1" d="M299.93,18.96c-1.07-3.92-2.05-6.23-3.65-8.37-3.12-4.01-7.57-6.94-12.91-6.94s-8.99,3.56-8.99,8.46c0,6.05,6.59,9.79,15.93,15.22,9.43,5.52,13.8,10.68,13.8,17.45,0,9.97-7.83,16.64-18.16,16.64-3.74,0-7.21-.62-10.5-2.05-1.69-.71-3.2-.98-4.18-.98-1.33,0-2.49,1.07-2.49,2.94h-1.96l-2.58-18.87h1.96c4.09,10.77,9.88,15.75,18.33,15.75,6.23,0,10.59-4.09,10.59-9.97,0-3.12-.89-5.16-2.58-7.03-3.12-3.38-9.26-7.3-14.95-10.32-8.01-4.27-10.86-9.79-10.86-15.31,0-9.7,6.68-15.58,15.49-15.58,3.65,0,5.96,.53,9.35,1.96,1.6,.71,3.03,1.07,3.92,1.07,1.51,0,2.49-1.07,2.85-3.03h1.87l1.96,18.96h-2.23Z"/>
</svg>