<svg xmlns="http://www.w3.org/2000/svg" width="70.001" height="70" viewBox="0 0 70.001 70">
  <g id="compass" transform="translate(0.001 -0.001)">
    <path id="Path_121" data-name="Path 121" d="M6.079,7.531a1.025,1.025,0,0,0,1.45-1.45L1.75.3A1.025,1.025,0,0,0,.3,1.751ZM32.146,10.2A1.025,1.025,0,0,0,33.171,9.17V4.331L36.8,9.583a1.132,1.132,0,0,0,1.279.471,1.174,1.174,0,0,0,.8-1.169L38.8,1.016A1.025,1.025,0,0,0,37.777,0h-.01a1.025,1.025,0,0,0-1.016,1.035L36.8,5.975,32.99.459a1.025,1.025,0,0,0-1.869.583V9.17A1.025,1.025,0,0,0,32.146,10.2Zm9.641-4.5A30.131,30.131,0,0,1,63.975,26.9a1.025,1.025,0,0,0,1.976-.551,32.182,32.182,0,0,0-23.7-22.657,1.025,1.025,0,1,0-.461,2ZM1.605,39.149a1.023,1.023,0,0,0,.039.144,1.21,1.21,0,0,0,1.14.805h.008a1.21,1.21,0,0,0,1.137-.82l.009-.027,1.5-4.839,1.491,4.84c0,.014.009.028.014.041a1.21,1.21,0,0,0,1.139.8h.008a1.21,1.21,0,0,0,1.137-.819,1.05,1.05,0,0,0,.035-.131l1.593-8a1.025,1.025,0,1,0-2.011-.4L7.9,35.457,6.416,30.628a1.025,1.025,0,0,0-1.982.086L2.966,35.458,2.03,30.731a1.025,1.025,0,0,0-2.012.4ZM63.194,7.831a1.022,1.022,0,0,0,.725-.3L69.7,1.751A1.025,1.025,0,0,0,68.249.3l-5.78,5.779a1.025,1.025,0,0,0,.725,1.75Zm5.779,24.161a1.025,1.025,0,0,0,0-2.051h-3.4a1.025,1.025,0,0,0-1.025,1.025v8.069a1.025,1.025,0,0,0,1.025,1.025h3.4a1.025,1.025,0,0,0,0-2.051H66.6V36.026h2.124a1.025,1.025,0,0,0,0-2.051H66.6V31.992ZM4.761,27.613A1.024,1.024,0,0,0,6.024,26.9,30.13,30.13,0,0,1,28.417,5.645a1.025,1.025,0,1,0-.447-2A32.18,32.18,0,0,0,4.049,26.35a1.025,1.025,0,0,0,.712,1.263ZM65.238,42.388a1.025,1.025,0,0,0-1.263.712A30.131,30.131,0,0,1,41.787,64.31a1.025,1.025,0,1,0,.461,2,32.181,32.181,0,0,0,23.7-22.657,1.025,1.025,0,0,0-.712-1.263ZM63.92,62.471a1.025,1.025,0,0,0-1.45,1.45L68.249,69.7a1.025,1.025,0,1,0,1.45-1.45ZM48.112,49.77a1.665,1.665,0,0,0,1.409-2.525l-4.777-7.852,1.2-.293a1.025,1.025,0,1,0-.485-1.993l-5.741,1.4A1.651,1.651,0,0,0,38.5,39.724L35,54.114l-3.5-14.391a1.651,1.651,0,0,0-1.218-1.218L15.886,35l14.391-3.5a1.651,1.651,0,0,0,1.218-1.218L35,15.888l3.5,14.391A1.651,1.651,0,0,0,39.722,31.5L54.113,35l-5.049,1.23a1.025,1.025,0,1,0,.485,1.993l6.62-1.612a1.657,1.657,0,0,0,0-3.22L44.744,30.609l4.777-7.852a1.657,1.657,0,0,0-2.277-2.277l-7.852,4.777L36.609,13.831A1.633,1.633,0,0,0,35,12.566h0a1.633,1.633,0,0,0-1.61,1.265L30.607,25.256l-7.852-4.777a1.657,1.657,0,0,0-2.277,2.277l3.758,6.178a1.025,1.025,0,1,0,1.752-1.066l-2.918-4.8L30.1,27.347l-.539,2.214L13.83,33.391a1.657,1.657,0,0,0,0,3.22l11.425,2.782-4.777,7.852a1.665,1.665,0,0,0,1.409,2.525,1.665,1.665,0,0,0,.868-.248l7.852-4.777L33.39,56.171A1.633,1.633,0,0,0,35,57.436h0a1.633,1.633,0,0,0,1.61-1.265l2.782-11.425,7.852,4.777a1.667,1.667,0,0,0,.868.248Zm-1.184-26.7L42.654,30.1,40.44,29.56,39.9,27.347ZM23.07,46.93,27.345,39.9l2.214.539.539,2.214ZM39.9,42.655l.539-2.214,2.214-.539,4.275,7.028ZM36.255,64.006c-1-.368-1.929-.77-2.216-.9a.558.558,0,0,1-.2-.523.811.811,0,0,1,.642-.646,2.706,2.706,0,0,1,2.234.517,1.025,1.025,0,0,0,1.314-1.574,4.751,4.751,0,0,0-4.14-.906A2.872,2.872,0,0,0,31.813,62.3a2.6,2.6,0,0,0,1.158,2.57,1.037,1.037,0,0,0,.142.078c.047.021,1.169.52,2.432.986.355.131,1.17.5,1.063,1.1a1.367,1.367,0,0,1-1.415.92,2.828,2.828,0,0,1-2.078-.87,1.025,1.025,0,0,0-1.52,1.377A4.908,4.908,0,0,0,35.193,70a3.366,3.366,0,0,0,3.434-2.61c.2-1.138-.313-2.625-2.372-3.385ZM6.079,62.471.3,68.251A1.025,1.025,0,0,0,1.75,69.7l5.779-5.779a1.025,1.025,0,1,0-1.45-1.45ZM29.625,64.6A30.143,30.143,0,0,1,5.907,42.669a1.025,1.025,0,0,0-1.984.521A32.2,32.2,0,0,0,29.261,66.619a1.025,1.025,0,0,0,.364-2.018Z" transform="translate(0)" fill="#d7bb92"/>
  </g>
</svg>
