<svg xmlns="http://www.w3.org/2000/svg" xmlns:xlink="http://www.w3.org/1999/xlink" width="70" height="70" viewBox="0 0 70 70">
  <defs>
    <clipPath id="clip-path">
      <rect id="Rectangle_43" data-name="Rectangle 43" width="70" height="70" transform="translate(145 3680)" fill="#011a1d"/>
    </clipPath>
  </defs>
  <g id="Mask_Group_4" data-name="Mask Group 4" transform="translate(-145 -3680)" clip-path="url(#clip-path)">
    <g id="dish" transform="translate(145 3680)">
      <g id="Group_128" data-name="Group 128">
        <g id="Group_127" data-name="Group 127">
          <path id="Path_107" data-name="Path 107" d="M49.569,23.592l-.749-2.465a5.355,5.355,0,0,0-10.141,0l-.749,2.465a13.847,13.847,0,0,0-.386,6.417,6.035,6.035,0,0,0,3.108,4.206l-.839,18.752a3.7,3.7,0,0,0,.933,2.872A4.075,4.075,0,0,0,46.5,56.1q.135-.123.258-.258a3.645,3.645,0,0,0,.933-2.794l-.843-18.832a6.034,6.034,0,0,0,3.1-4.2A13.847,13.847,0,0,0,49.569,23.592ZM47.657,29.6a3.7,3.7,0,0,1-2.421,2.787,1.166,1.166,0,0,0-.755,1.145l.887,19.694a1.35,1.35,0,0,1-.35,1.057,1.8,1.8,0,0,1-2.536,0,1.4,1.4,0,0,1-.343-1.134l.88-19.618a1.166,1.166,0,0,0-.755-1.145A3.7,3.7,0,0,1,39.843,29.6a11.5,11.5,0,0,1,.321-5.327l.749-2.466a3.025,3.025,0,0,1,5.675,0l.749,2.466A11.521,11.521,0,0,1,47.657,29.6Z" fill="#d7bb92"/>
        </g>
      </g>
      <g id="Group_130" data-name="Group 130">
        <g id="Group_129" data-name="Group 129">
          <path id="Path_108" data-name="Path 108" d="M31.5,17.5a1.167,1.167,0,0,0-1.167,1.167V28.684l-3.158,3.158a1.167,1.167,0,0,0-.342.883l1.021,20.417a1.589,1.589,0,0,1-.441,1.189,1.643,1.643,0,0,1-2.323.01l-.01-.01a1.589,1.589,0,0,1-.441-1.189l1.028-20.417a1.167,1.167,0,0,0-.341-.883l-3.159-3.158V18.667a1.167,1.167,0,0,0-2.333,0v10.5a1.167,1.167,0,0,0,.342.825l3.134,3.135-1,19.9a3.941,3.941,0,0,0,7.873.384q.009-.192,0-.383l-1-19.9,3.134-3.135a1.167,1.167,0,0,0,.342-.825v-10.5A1.167,1.167,0,0,0,31.5,17.5Z" fill="#d7bb92"/>
        </g>
      </g>
      <g id="Group_132" data-name="Group 132">
        <g id="Group_131" data-name="Group 131">
          <path id="Path_109" data-name="Path 109" d="M24.5,17.5a1.167,1.167,0,0,0-1.167,1.167V28a1.167,1.167,0,0,0,2.333,0V18.667A1.167,1.167,0,0,0,24.5,17.5Z" fill="#d7bb92"/>
        </g>
      </g>
      <g id="Group_134" data-name="Group 134">
        <g id="Group_133" data-name="Group 133">
          <path id="Path_110" data-name="Path 110" d="M28,17.5a1.167,1.167,0,0,0-1.167,1.167V28a1.167,1.167,0,0,0,2.333,0V18.667A1.167,1.167,0,0,0,28,17.5Z" fill="#d7bb92"/>
        </g>
      </g>
      <g id="Group_136" data-name="Group 136">
        <g id="Group_135" data-name="Group 135">
          <path id="Path_111" data-name="Path 111" d="M35,0A35,35,0,1,0,70,35,35,35,0,0,0,35,0Zm0,67.667A32.667,32.667,0,1,1,67.667,35,32.667,32.667,0,0,1,35,67.667Z" fill="#d7bb92"/>
        </g>
      </g>
      <g id="Group_138" data-name="Group 138">
        <g id="Group_137" data-name="Group 137">
          <path id="Path_112" data-name="Path 112" d="M38.787,56.9a1.167,1.167,0,0,0-1.275-1.048l-.045.005h0a21.431,21.431,0,0,1-4.944,0,1.167,1.167,0,1,0-.272,2.318,23.631,23.631,0,0,0,5.483,0A1.167,1.167,0,0,0,38.787,56.9Z" fill="#d7bb92"/>
        </g>
      </g>
      <g id="Group_140" data-name="Group 140">
        <g id="Group_139" data-name="Group 139">
          <path id="Path_113" data-name="Path 113" d="M52.85,19.966a1.167,1.167,0,0,0-1.644-.144l0,0a1.167,1.167,0,0,0-.14,1.644,21,21,0,0,1-1.238,28.4,1.167,1.167,0,1,0,1.647,1.653A23.333,23.333,0,0,0,52.85,19.966Z" fill="#d7bb92"/>
        </g>
      </g>
      <g id="Group_143" data-name="Group 143">
        <g id="Group_142" data-name="Group 142">
          <g id="Group_141" data-name="Group 141">
            <path id="Path_114" data-name="Path 114" d="M27.182,15.421h0Z" fill="#d7bb92"/>
            <path id="Path_115" data-name="Path 115" d="M40.5,12.319a23.54,23.54,0,0,0-13.733.843,1.166,1.166,0,1,0,.818,2.183,21.2,21.2,0,0,1,12.367-.758,1.167,1.167,0,1,0,.548-2.268Z" fill="#d7bb92"/>
          </g>
        </g>
      </g>
      <g id="Group_145" data-name="Group 145">
        <g id="Group_144" data-name="Group 144">
          <path id="Path_116" data-name="Path 116" d="M20.124,49.817a21,21,0,0,1-2.109-27.169,1.167,1.167,0,1,0-1.865-1.4l-.02.028a23.333,23.333,0,0,0,2.341,30.2,1.169,1.169,0,1,0,1.653-1.652Z" fill="#d7bb92"/>
        </g>
      </g>
    </g>
  </g>
</svg>
